<?xml version="1.0" encoding="utf-8"?>
<!-- Generator: Adobe Illustrator 23.0.1, SVG Export Plug-In . SVG Version: 6.00 Build 0)  -->
<svg version="1.1" id="Camada_1" xmlns="http://www.w3.org/2000/svg" xmlns:xlink="http://www.w3.org/1999/xlink" x="0px" y="0px"
	 viewBox="0 0 1024 768" style="enable-background:new 0 0 1024 768;" xml:space="preserve">
<g>
	<path d="M392.4,359.58c-5.09,4.97-11.38,7.45-18.86,7.45c-7.49,0-13.78-2.48-18.86-7.45c-5.09-4.97-7.63-11.16-7.63-18.58
		s2.54-13.61,7.63-18.58c5.09-4.97,11.38-7.45,18.86-7.45c7.49,0,13.78,2.48,18.86,7.45c5.09,4.97,7.63,11.16,7.63,18.58
		S397.49,354.61,392.4,359.58z M386.18,328.08c-3.43-3.55-7.64-5.33-12.64-5.33c-4.99,0-9.21,1.78-12.64,5.33
		c-3.43,3.55-5.15,7.86-5.15,12.92c0,5.06,1.72,9.37,5.15,12.92c3.43,3.55,7.64,5.33,12.64,5.33c4.99,0,9.2-1.78,12.64-5.33
		c3.43-3.55,5.15-7.86,5.15-12.92C391.32,335.94,389.61,331.63,386.18,328.08z"/>
	<path d="M417.32,345.79v20.74h-8.06v-38.3h8.06v6.98c1.3-2.35,3.08-4.2,5.36-5.54c2.28-1.34,4.74-2.02,7.38-2.02
		c4.32,0,7.81,1.32,10.48,3.96c2.66,2.64,4,6.46,4,11.45v23.47h-8.06V345.5c0-7.06-2.93-10.58-8.78-10.58
		c-2.78,0-5.21,0.92-7.27,2.77C418.35,339.54,417.32,342.24,417.32,345.79z"/>
	<path d="M472.11,323.98v42.55h-8.5v-42.55h-15.26v-7.78h39.02v7.78H472.11z"/>
	<path d="M503.14,345.79v20.74h-8.06v-53.35h8.06v22.03c1.15-2.35,2.89-4.2,5.22-5.54c2.33-1.34,4.83-2.02,7.52-2.02
		c4.32,0,7.81,1.32,10.48,3.96c2.66,2.64,4,6.46,4,11.45v23.47h-8.06V345.5c0-7.06-2.93-10.58-8.78-10.58
		c-2.78,0-5.21,0.92-7.27,2.77C504.17,339.54,503.14,342.24,503.14,345.79z"/>
	<path d="M577.23,350.9h-30.02c0.19,2.78,1.46,5.03,3.82,6.73c2.35,1.7,5.04,2.56,8.06,2.56c4.8,0,8.45-1.51,10.94-4.54l4.61,5.04
		c-4.13,4.27-9.5,6.41-16.13,6.41c-5.38,0-9.95-1.79-13.72-5.36c-3.77-3.58-5.65-8.38-5.65-14.4c0-6.02,1.92-10.81,5.76-14.36
		c3.84-3.55,8.36-5.33,13.57-5.33c5.21,0,9.64,1.57,13.28,4.72c3.65,3.14,5.47,7.48,5.47,13V350.9z M547.21,344.57h21.96
		c0-3.22-1.01-5.69-3.02-7.42c-2.02-1.73-4.5-2.59-7.45-2.59c-2.95,0-5.6,0.9-7.96,2.7C548.38,339.06,547.21,341.5,547.21,344.57z"
		/>
	<path d="M622.08,342.05h8.5v17.21c-4.75,5.23-11.54,7.85-20.38,7.85c-7.44,0-13.67-2.45-18.68-7.34S584,348.67,584,341.18
		c0-7.49,2.56-13.73,7.67-18.72c5.11-4.99,11.29-7.49,18.54-7.49c7.25,0,13.27,2.11,18.07,6.34l-4.54,6.48
		c-1.97-1.68-3.95-2.84-5.94-3.49c-1.99-0.65-4.31-0.97-6.95-0.97c-5.09,0-9.36,1.65-12.82,4.93c-3.46,3.29-5.18,7.61-5.18,12.96
		c0,5.35,1.68,9.65,5.04,12.89c3.36,3.24,7.43,4.86,12.2,4.86c4.78,0,8.77-1.03,11.99-3.1V342.05z"/>
	<path d="M672.63,361.38c-3.84,3.82-8.64,5.72-14.4,5.72c-5.76,0-10.56-1.91-14.4-5.72c-3.84-3.82-5.76-8.48-5.76-14
		c0-5.52,1.92-10.19,5.76-14c3.84-3.82,8.64-5.72,14.4-5.72c5.76,0,10.56,1.91,14.4,5.72c3.84,3.82,5.76,8.48,5.76,14
		C678.39,352.9,676.47,357.56,672.63,361.38z M649.55,356.41c2.28,2.33,5.17,3.49,8.68,3.49s6.4-1.16,8.68-3.49
		c2.28-2.33,3.42-5.34,3.42-9.04c0-3.7-1.14-6.71-3.42-9.04c-2.28-2.33-5.17-3.49-8.68-3.49s-6.4,1.16-8.68,3.49
		c-2.28,2.33-3.42,5.34-3.42,9.04C646.13,351.07,647.27,354.08,649.55,356.41z"/>
	<path d="M436.57,395.76v28.37h-5.66v-28.37h-10.18v-5.18h26.02v5.18H436.57z"/>
	<path d="M448.95,412.32v-5.04h15.94v5.04H448.95z"/>
	<path d="M482.77,394.99c-1.65,0-3,0.34-4.06,1.01s-1.58,1.69-1.58,3.05c0,1.36,0.53,2.4,1.58,3.12c1.06,0.72,3.3,1.5,6.74,2.33
		c3.44,0.83,6.03,2,7.78,3.5c1.74,1.5,2.62,3.72,2.62,6.65s-1.1,5.3-3.31,7.13c-2.21,1.82-5.1,2.74-8.69,2.74
		c-5.25,0-9.9-1.81-13.97-5.42l3.55-4.27c3.39,2.94,6.91,4.42,10.56,4.42c1.82,0,3.27-0.39,4.34-1.18c1.07-0.78,1.61-1.82,1.61-3.12
		s-0.5-2.3-1.51-3.02c-1.01-0.72-2.74-1.38-5.21-1.97c-2.46-0.59-4.34-1.14-5.62-1.63c-1.28-0.5-2.42-1.14-3.41-1.94
		c-1.98-1.5-2.98-3.81-2.98-6.91c0-3.1,1.13-5.5,3.38-7.18c2.26-1.68,5.05-2.52,8.38-2.52c2.14,0,4.27,0.35,6.38,1.06
		c2.11,0.7,3.94,1.7,5.47,2.98l-3.02,4.27c-0.99-0.9-2.34-1.63-4.03-2.21C486.08,395.28,484.41,394.99,482.77,394.99z"/>
	<path d="M507.46,410.3v13.82h-5.38v-35.57h5.38v14.69c0.77-1.57,1.93-2.8,3.48-3.7c1.55-0.9,3.22-1.34,5.02-1.34
		c2.88,0,5.21,0.88,6.98,2.64c1.78,1.76,2.66,4.3,2.66,7.63v15.65h-5.38v-14.02c0-4.7-1.95-7.06-5.86-7.06
		c-1.86,0-3.47,0.62-4.85,1.85C508.15,406.14,507.46,407.94,507.46,410.3z"/>
	<path d="M533.43,393.5c-0.67-0.67-1.01-1.47-1.01-2.4c0-0.93,0.34-1.73,1.01-2.4c0.67-0.67,1.47-1.01,2.4-1.01
		c0.93,0,1.73,0.34,2.4,1.01c0.67,0.67,1.01,1.47,1.01,2.4c0,0.93-0.34,1.73-1.01,2.4c-0.67,0.67-1.47,1.01-2.4,1.01
		C534.9,394.51,534.1,394.17,533.43,393.5z M538.47,424.13h-5.38v-25.54h5.38V424.13z"/>
	<path d="M559.64,403.63c-2.66,0-4.66,0.86-6,2.59c-1.34,1.73-2.02,4.05-2.02,6.96v10.94h-5.38v-25.54h5.38v5.14
		c0.86-1.6,2.04-2.91,3.53-3.94c1.49-1.02,3.06-1.55,4.73-1.58l0.05,5.42C559.83,403.63,559.73,403.63,559.64,403.63z"/>
	<path d="M571.92,402.91v12.96c0,1.22,0.32,2.18,0.96,2.9c0.64,0.72,1.54,1.08,2.69,1.08c1.15,0,2.26-0.56,3.31-1.68l2.21,3.79
		c-1.89,1.7-3.98,2.54-6.26,2.54c-2.29,0-4.24-0.79-5.86-2.38s-2.42-3.72-2.42-6.41v-12.82h-3.22v-4.32h3.22v-8.02h5.38v8.02h6.72
		v4.32H571.92z"/>
	<path d="M603.55,416.5c0,2.43-0.88,4.38-2.64,5.83c-1.76,1.46-4.02,2.18-6.77,2.18c-1.86,0-3.78-0.34-5.78-1.01
		s-3.77-1.62-5.3-2.83l2.59-4.18c2.98,2.24,5.86,3.36,8.64,3.36c1.22,0,2.18-0.28,2.88-0.84c0.7-0.56,1.06-1.27,1.06-2.14
		c0-1.28-1.7-2.43-5.09-3.46c-0.26-0.1-0.45-0.16-0.58-0.19c-5.31-1.44-7.97-3.84-7.97-7.2c0-2.37,0.92-4.26,2.76-5.69
		c1.84-1.42,4.23-2.14,7.18-2.14s5.73,0.86,8.35,2.59l-2.02,3.98c-2.08-1.38-4.34-2.06-6.77-2.06c-1.28,0-2.32,0.23-3.12,0.7
		c-0.8,0.46-1.2,1.16-1.2,2.09c0,0.83,0.42,1.44,1.25,1.82c0.58,0.29,1.38,0.56,2.42,0.82c1.04,0.26,1.96,0.51,2.76,0.77
		c0.8,0.26,1.58,0.54,2.33,0.86c0.75,0.32,1.56,0.77,2.42,1.34C602.69,412.27,603.55,414.06,603.55,416.5z"/>
</g>
</svg>
